<?xml version="1.0" encoding="utf-8"?>
<!-- Generator: Adobe Illustrator 21.0.2, SVG Export Plug-In . SVG Version: 6.00 Build 0)  -->
<svg version="1.1" id="Layer_1" xmlns="http://www.w3.org/2000/svg" xmlns:xlink="http://www.w3.org/1999/xlink" x="0px" y="0px"
	 viewBox="0 0 595.3 841.9" style="enable-background:new 0 0 595.3 841.9;" xml:space="preserve">
<style type="text/css">
	.st0{fill:#A37EB7;}
	.st1{font-family:'Corbel';}
	.st2{font-size:20px;}
	.st3{fill:#AFA6D2;}
	.st4{fill:#CE88BA;}
	.st5{fill:none;stroke:#A37EB7;stroke-width:0.5;stroke-miterlimit:10;}
</style>
<g>
	<text transform="matrix(1 0 0 1 216.7183 498.907)" class="st0 st1 st2">P s í c o l o g í a   p a r a  l a   s a l u d</text>
</g>
<g>
	<g>
		<g>
			<path class="st3" d="M235.6,456.2c-12.4-33-32.7-65.1-65.3-81c-19.1-9.3-40.4-11.5-61.5-11.6c-21.5-0.1-42.7,1.9-63.6,7.2
				c-11.6,3-22.4,7.7-33.6,11.6C9.9,383,7,385.1,8.5,387c1.6,2,5.9,0.7,7.7,0.1c8-2.7,15.6-6.3,23.7-8.6c18.8-5.5,38.2-8.2,57.8-8.3
				c19.9-0.1,40,0.7,58.5,8.5c18.6,7.8,33.9,21.6,45.6,38c9.3,13,16.5,27.7,22.1,42.7C225.5,463.3,236.9,459.9,235.6,456.2
				L235.6,456.2z"/>
		</g>
	</g>
	<g>
		<g>
			<path class="st3" d="M233.5,460.1c13.8-8.2,26.4-19.1,36.2-31.8c14.9-19.2,22.1-42.3,20.7-66.6c-0.5-9.3-2.2-22.2-12.3-26.1
				c-4.6-1.7-13.5,4.8-6.8,7.4c3.9,1.5,5.3,7.6,6.1,11.1c1.5,6.6,1.7,13.4,1.3,20.1c-0.7,14.3-4.3,27.9-11.4,40.3
				c-9.7,16.9-24.6,30.9-41.4,40.8c-2.1,1.2-2.9,4-0.7,5.6C227.6,462.7,231.3,461.5,233.5,460.1L233.5,460.1z"/>
		</g>
	</g>
</g>
<g>
	<g>
		<path class="st0" d="M295.3,395.9c-4,9-7.4,18.7-7.6,28.7c-0.2,6,0.8,12.9,5.6,17.1c8.7,7.6,20.5,3.2,25.3-6
			c5.1-9.8,5.9-21.7,6.5-32.5c0.6-11.9,0.3-23.8-0.5-35.6c-0.8-12-2-23.9-3.9-35.7c-0.3-1.9-6.1-0.6-5.8,1.6
			c3.1,18.7,4.6,37.7,4.7,56.6c0.1,10.8-0.3,21.9-2.3,32.5c-1.2,6.3-3.8,20.2-12.3,19.4c-9.1-0.9-11.5-10.3-11.4-18
			c0.2-10,3.7-19.7,7.6-28.7C301.8,393.4,296.1,394,295.3,395.9L295.3,395.9z"/>
	</g>
</g>
<g>
	<g>
		<path class="st0" d="M390.2,396.8c3.4,7.8,6.4,16,7.2,24.6c0.6,5.8,0.5,14.3-4.7,18.2c-10.2,7.7-15.7-8.1-17.3-15.1
			c-4.6-19.3-3.3-40.3-1.9-59.9c0.8-10.1,1.9-20.2,3.5-30.2c0.4-2.4-5.5-1.4-5.8,0.7c-3.5,21.4-5.1,43.4-4.5,65
			c0.4,13.9,2.8,56.5,27.8,42.7c16.4-9,7-34.9,1.5-47.5C395,393.1,389.3,394.9,390.2,396.8L390.2,396.8z"/>
	</g>
</g>
<g>
	<g>
		<path class="st0" d="M297.9,380.2c0,0.5-0.3,0.8-0.4,1.2c0,0.1-0.1,0.1-0.2,0.2c-0.4,0.4,0,0.3,1.2-0.2c2-0.6,1.5-0.2,0.8-0.5
			c-0.8-0.4-1.2-1.3-1.2-2.1c0-0.4,0.1-0.8,0.3-1.1c0.4-0.6,1.1-0.5-1,0c-2.6,0.7-1.4,0.1-0.9,0.5
			C297.5,378.6,297.9,379.1,297.9,380.2c0.1,1.2,5.9,0.2,5.8-1.6c-0.2-2.8-3.1-3.5-5.5-3.1c-2.5,0.4-5.9,1.7-5.9,4.7
			c0,2.7,2.9,3.4,5.1,3.2c2.7-0.3,6.1-1.6,6.2-4.7C303.8,377.6,298,378.4,297.9,380.2z"/>
	</g>
</g>
<g>
	<g>
		<path class="st0" d="M392.2,379.8c0,0.3-0.3,0.8-0.3,1.1c0,0.5-0.2,0,0,0.1c-0.1-0.1,1.6-0.4,1.6-0.4c-0.1,0.1-0.7-0.6-0.7-0.6
			c-0.2-0.3-0.3-0.7-0.3-1.1c0-0.1,0.3-1,0.3-1c0.1,0.2-1.6,0.5-1.6,0.5c0.1-0.1,0.7,0.6,0.7,0.6c0.2,0.4,0.3,0.8,0.3,1.3
			c0.1,1.2,2.6,0.9,3.3,0.7c1.1-0.3,2.6-1,2.5-2.3c-0.3-6-11.3-4.1-11.3,1.3c0,6.1,11,4.4,11.3-0.9c0.1-1.3-1.6-1.4-2.5-1.3
			C394.6,377.9,392.3,378.5,392.2,379.8z"/>
	</g>
</g>
<g>
	<g>
		<path class="st0" d="M308.5,380.4c7.6,0,15.1,0,22.7,0c2.4,0,6.1-3.7,2.1-3.7c-7.6,0-15.1,0-22.7,0
			C308.2,376.7,304.6,380.4,308.5,380.4L308.5,380.4z"/>
	</g>
</g>
<g>
	<g>
		<path class="st0" d="M354.3,387.9c-7.8,2.1-15.5,6.1-21,12.1c-7.7,8.3-11.6,24.3-5,34.4c6.7,10.2,21,1.6,26.8-5
			c4.4-4.9,6.3-10.9,6.2-17.4c0-2.9-0.4-5.8-1-8.6c-0.2-1-0.3-2.2-0.7-3.1c-0.2-0.5,0-1.6-0.4-0.9c-1.5,0.5-3,1-4.5,1.4
			c-1.3-0.1-0.7-0.2-0.2,1.3c0.7,1.9,1.2,3.9,1.8,5.8c2.8,9.7,5.2,19.5,7.7,29.3c0.4,1.6,6.2,0.1,5.8-1.6
			c-2.6-10.3-5.2-20.7-8.2-30.9c-0.4-1.5-1-6.4-3.2-6.6c-1.2-0.1-3.7,0.3-4.5,1.4c-0.9,1.4,0.4,3.9,0.6,5.3c1,4.7,1.4,9.6,0.5,14.3
			c-1.2,6-4.9,11-9.8,14.5c-6.3,4.6-11.3,1.1-13.2-5.5c-4.9-17,6.3-33.7,22.8-38C358.3,389.3,357.7,387,354.3,387.9L354.3,387.9z"/>
	</g>
</g>
<g>
	<g>
		<path class="st0" d="M472.3,387c-8,2.1-15.9,6.5-21.3,12.8c-7.3,8.5-10.4,23.1-5,33.4c6.3,12.1,21.3,3.7,27.6-3.8
			c4.3-5.1,6.2-11.3,6-17.9c-0.1-2.5-0.4-5-0.8-7.5c-0.2-1.1-0.4-2.3-0.7-3.4c-0.2-0.6,0-1.9-0.5-1.2c-1.3,0.6-2.5,1.2-3.8,1.7
			c-1.9-0.1-1.7-1.5-0.9,0.8c0.7,2,1.3,4,1.8,6c2.7,9.6,5.2,19.3,7.6,28.9c0.6,2.5,6.4,1,5.8-1.6c-2.6-10.4-5.2-20.9-8.3-31.3
			c-0.6-2-1.2-6.7-4-6.9c-1.5-0.1-3,0.5-3.8,1.7c-0.9,1.4,0.5,4.3,0.7,5.7c0.9,4.6,1.4,9.5,0.4,14.1c-1.3,6.1-5.3,11.3-10.6,14.6
			c-6.1,3.8-10.5,0.9-12.3-5.3c-4.9-17.1,6.7-33,23-37.3C476.9,389.8,475.9,386,472.3,387L472.3,387z"/>
	</g>
</g>
<g>
	<g>
		<path class="st4" d="M407.2,396.1c3.9,0.1,7.9,0.3,11.8,0.4c4,0.1,8.8-0.4,12.7,0.6c3.8,0.9,1.2,5.4-0.3,8
			c-1.9,3.1-4.2,5.9-6.5,8.8c-8.9,11.5-16.4,24.2-21.2,37.9c-1.3,3.7-3.5,8.5-1,12.1c2.9,4.2,9.4,4.6,14,4.5
			c12.4-0.4,24.3-5.9,35.2-11.2c4-1.9,7.9-2.8,13-3.6c8.4-1.3,17.3-2,25.8-1.2c8.1,0.7,18.4,5.1,26.4,9.2
			c23.8,12.4,44.8,30.1,64.6,48.1c2.4,2.2,10.6-1.2,8-3.5c-18.4-16.8-37.8-33.1-59.5-45.5c-9.9-5.7-20.7-11-32-12.9
			c-5-0.9-9.9-0.8-15-0.7c-9.6,0.3-19.5,1.1-28.8,3.9c-6.3,1.9-11.9,5.4-18.1,7.8c-6.4,2.5-15.7,6.3-22.5,3.9
			c-6.5-2.3-2.3-9.7-0.6-14.1c3.1-8.1,7.1-15.8,11.8-23c4.5-6.9,10.3-13,14.5-20c2.7-4.5,5.4-11.4-1.4-13.1c-4.1-1-8.7-0.7-12.8-0.9
			c-4.9-0.2-9.9-0.3-14.8-0.5c-1.7-0.1-5,0.6-5.7,2.4C404,395.2,405.4,396.1,407.2,396.1L407.2,396.1z"/>
	</g>
</g>
<path class="st5" d="M122.9,369.6"/>
</svg>
